Coordinates
version=1
nRows=23
nColumns=30
inDegrees=yes

Units are S.I. units (second, meters, Newtons, ...)
Angles are in degrees.

endheader
time	floatyaw	floatroll	floatpitch	floatx	floaty	floatz	pro_sup_l	deviation_l	flexion_l	cmc_flexion_l	cmc_abduction_l	mp_flexion_l	ip_flexion_l	2mcp_flexion_l	2mcp_abduction_l	2pm_flexion_l	2md_flexion_l	3mcp_flexion_l	3mcp_abduction_l	3pm_flexion_l	3md_flexion_l	4mcp_flexion_l	4mcp_abduction_l	4pm_flexion_l	4md_flexion_l	5mcp_flexion_l	5mcp_abduction_l	5pm_flexion_l	5md_flexion_l
-0.995000	-2.809327	-3.522153	94.733797	-0.007399	-0.270388	0.002903	91.859961	0.688569	-1.791369	27.105179	2.219926	-18.281874	-33.042779	19.067695	6.402071	33.254751	20.439254	8.820119	4.591342	35.738770	21.733713	-1.901880	-3.883520	52.609092	33.108119	-21.559726	-8.968573	63.025965	49.862769
-0.985000	-2.809327	-3.522153	94.733797	-0.007410	-0.270383	0.002920	91.854095	0.685522	-1.779615	27.073358	2.215479	-18.277810	-33.001760	19.049427	6.396476	33.248203	20.444994	8.795279	4.588375	35.741920	21.745037	-1.928618	-3.881792	52.617994	33.107694	-21.594402	-8.965175	63.020739	49.833980
-0.975000	-2.809327	-3.522153	94.733797	-0.007428	-0.270387	0.002948	91.854404	0.680979	-1.773552	27.054835	2.208406	-18.279812	-32.984940	19.034196	6.389927	33.242987	20.441993	8.779852	4.582322	35.740431	21.742914	-1.954341	-3.877656	52.627284	33.099349	-21.628338	-8.961497	63.022366	49.794561
-0.965000	-2.809327	-3.522153	94.733797	-0.007452	-0.270399	0.002985	91.862563	0.674282	-1.775315	27.054182	2.199340	-18.287323	-32.998124	19.028948	6.383412	33.232719	20.429803	8.780444	4.574453	35.727597	21.726414	-1.971723	-3.870748	52.628711	33.084887	-21.656857	-8.961693	63.023159	49.747141
-0.955000	-2.809327	-3.522153	94.733797	-0.007483	-0.270419	0.003028	91.875904	0.664631	-1.784439	27.068293	2.189264	-18.297095	-33.033833	19.037454	6.377178	33.211458	20.410024	8.797811	4.565812	35.699530	21.698341	-1.976229	-3.861589	52.614601	33.067094	-21.677289	-8.967635	63.009857	49.699144
-0.945000	-2.809327	-3.522153	94.733797	-0.007516	-0.270444	0.003071	91.889387	0.651946	-1.798452	27.088319	2.179972	-18.304248	-33.074758	19.059445	6.371695	33.177012	20.386323	8.827543	4.557266	35.657504	21.664435	-1.966319	-3.851978	52.581638	33.048265	-21.687829	-8.977304	62.972242	49.660295
-0.935000	-2.809327	-3.522153	94.733797	-0.007546	-0.270470	0.003109	91.898956	0.637682	-1.814151	27.103889	2.173569	-18.304362	-33.101386	19.090953	6.368293	33.132475	20.364134	8.862927	4.549919	35.607661	21.631713	-1.942927	-3.844840	52.532659	33.029389	-21.686561	-8.985438	62.911674	49.637295
-0.925000	-2.809327	-3.522153	94.733797	-0.007563	-0.270490	0.003138	91.903672	0.624930	-1.828634	27.106793	2.171714	-18.295402	-33.099311	19.125848	6.368712	33.084866	20.349683	8.898096	4.545286	35.558334	21.606702	-1.908908	-3.843294	52.475323	33.010616	-21.671535	-8.986226	62.842992	49.628850
-0.915000	-2.809327	-3.522153	94.733797	-0.007561	-0.270500	0.003163	91.905195	0.617515	-1.839602	27.092576	2.175339	-18.278487	-33.063024	19.157874	6.373895	33.042086	20.348214	8.929662	4.544853	35.516720	21.594148	-1.868480	-3.849176	52.418325	32.992523	-21.641613	-8.976667	62.787077	49.624581
-0.905000	-2.809327	-3.522153	94.733797	-0.007536	-0.270495	0.003189	91.905359	0.618462	-1.845180	27.060243	2.185087	-18.257124	-32.995707	19.182195	6.383205	33.010502	20.361795	8.956188	4.549251	35.486915	21.596217	-1.826443	-3.861809	52.367586	32.976930	-21.597126	-8.958597	62.758180	49.609195
-0.895000	-2.809327	-3.522153	94.733797	-0.007487	-0.270474	0.003226	91.903865	0.628718	-1.843839	27.011204	2.202202	-18.235365	-32.906545	19.196211	6.394912	32.994115	20.387521	8.976506	4.557718	35.470145	21.611987	-1.787271	-3.877905	52.324933	32.966369	-21.539628	-8.938089	62.754517	49.569892
-0.885000	-2.809327	-3.522153	94.733797	-0.007418	-0.270440	0.003282	91.897968	0.646959	-1.834646	26.948588	2.229141	-18.215963	-32.807447	19.200282	6.407651	32.994219	20.417174	8.988853	4.568413	35.466275	21.637298	-1.754185	-3.892912	52.289665	32.962444	-21.470698	-8.922763	62.758846	49.502704
-0.875000	-2.809327	-3.522153	94.733797	-0.007333	-0.270395	0.003361	91.884512	0.670607	-1.817528	26.877313	2.269090	-18.199740	-32.710317	19.198636	6.421633	33.008476	20.439238	8.992185	4.579519	35.474916	21.665430	-1.728153	-3.903120	52.261055	32.964342	-21.390615	-8.918875	62.748721	49.414080
-0.865000	-2.809327	-3.522153	94.733797	-0.007234	-0.270338	0.003464	91.862719	0.697308	-1.793136	26.803963	2.324314	-18.186469	-32.624912	19.199433	6.438405	33.030105	20.443249	8.989011	4.590306	35.494934	21.688906	-1.707000	-3.907222	52.239363	32.968683	-21.298048	-8.929644	62.709172	49.316823
-0.855000	-2.809327	-3.522153	94.733797	-0.007119	-0.270260	0.003588	91.835307	0.725916	-1.762373	26.735067	2.394253	-18.176393	-32.556922	19.212906	6.459009	33.048679	20.424725	8.987411	4.601194	35.522574	21.701975	-1.685404	-3.906370	52.224667	32.970852	-21.191393	-8.954726	62.639132	49.222689
-0.845000	-2.809327	-3.522153	94.733797	-0.006985	-0.270153	0.003736	91.806824	0.756634	-1.726063	26.673791	2.474318	-18.170918	-32.506590	19.248053	6.481823	33.052806	20.387752	8.999886	4.612635	35.549743	21.702621	-1.656629	-3.902792	52.214917	32.966940	-21.071265	-8.989957	62.548399	49.135817
-0.835000	-2.809327	-3.522153	94.733797	-0.006833	-0.270011	0.003913	91.780507	0.790752	-1.685049	26.617148	2.555782	-18.171629	-32.468629	19.309498	6.501938	33.033598	20.343251	9.038636	4.623671	35.564592	21.693059	-1.616012	-3.898117	52.205561	32.955315	-20.942895	-9.027301	62.449515	49.050971
-0.825000	-2.809327	-3.522153	94.733797	-0.006663	-0.269838	0.004123	91.756283	0.830564	-1.640527	26.555970	2.627204	-18.177975	-32.433440	19.395705	6.513069	32.987712	20.303808	9.109545	4.631533	35.555204	21.678509	-1.564422	-3.892660	52.191806	32.937286	-20.817017	-9.056111	62.351851	48.957975
-0.815000	-2.809327	-3.522153	94.733797	-0.006477	-0.269646	0.004370	91.731639	0.879305	-1.594188	26.477890	2.678080	-18.185105	-32.388690	19.498887	6.511116	32.919029	20.278111	9.208770	4.632937	35.514679	21.664910	-1.508736	-3.886033	52.171808	32.916572	-20.708233	-9.066720	62.260942	48.849781
-0.805000	-2.809327	-3.522153	94.733797	-0.006275	-0.269448	0.004651	91.704778	0.940460	-1.548083	26.371782	2.704215	-18.183810	-32.320780	19.607103	6.497185	32.837824	20.267708	9.324632	4.626401	35.444349	21.656650	-1.457647	-3.878261	52.147416	32.897522	-20.630731	-9.055570	62.180033	48.728985
-0.795000	-2.809327	-3.522153	94.733797	-0.006054	-0.269250	0.004966	91.677632	1.016096	-1.504422	26.231935	2.712138	-18.163803	-32.217105	19.709284	6.478101	32.756353	20.266839	9.444187	4.613982	35.352851	21.655306	-1.414657	-3.870316	52.120808	32.882819	-20.592416	-9.028841	62.109453	48.608504
-0.785000	-2.809327	-3.522153	94.733797	-0.005808	-0.269051	0.005319	91.656178	1.104890	-1.465345	26.060612	2.719426	-18.119434	-32.069851	19.802343	6.463935	32.681559	20.264727	9.560717	4.601040	35.251506	21.659890	-1.373081	-3.863736	52.089126	32.872225	-20.589530	-9.001262	62.043377	48.505873
-0.775000	-2.809327	-3.522153	94.733797	-0.005529	-0.268836	0.005725	91.647160	1.201344	-1.432270	25.867578	2.750160	-18.054604	-31.879812	19.896681	6.463722	32.608654	20.249519	9.677575	4.593982	35.148837	21.668317	-1.317073	-3.859933	52.041623	32.863626	-20.604009	-8.989522	61.967501	48.434188
